<?xml version="1.0" encoding="UTF-8" standalone="no"?>
<!-- Created with Inkscape (http://www.inkscape.org/) -->

<svg
   xmlns:dc="http://purl.org/dc/elements/1.1/"
   xmlns:cc="http://creativecommons.org/ns#"
   xmlns:rdf="http://www.w3.org/1999/02/22-rdf-syntax-ns#"
   xmlns:svg="http://www.w3.org/2000/svg"
   xmlns="http://www.w3.org/2000/svg"
   xmlns:sodipodi="http://sodipodi.sourceforge.net/DTD/sodipodi-0.dtd"
   xmlns:inkscape="http://www.inkscape.org/namespaces/inkscape"
   id="svg2"
   version="1.1"
   inkscape:version="0.91 r13725"
   width="2048"
   height="2048"
   viewBox="0 0 2048 2048"
   sodipodi:docname="Arcane Contraption 01.svg">
  <metadata
     id="metadata8">
    <rdf:RDF>
      <cc:Work
         rdf:about="">
        <dc:format>image/svg+xml</dc:format>
        <dc:type
           rdf:resource="http://purl.org/dc/dcmitype/StillImage" />
        <dc:title></dc:title>
      </cc:Work>
    </rdf:RDF>
  </metadata>
  <defs
     id="defs6" />
  <sodipodi:namedview
     pagecolor="#ffffff"
     bordercolor="#666666"
     borderopacity="1"
     objecttolerance="10"
     gridtolerance="10"
     guidetolerance="10"
     inkscape:pageopacity="0"
     inkscape:pageshadow="2"
     inkscape:window-width="640"
     inkscape:window-height="480"
     id="namedview4"
     showgrid="false"
     inkscape:zoom="0.27783203"
     inkscape:cx="1024"
     inkscape:cy="1024"
     inkscape:current-layer="svg2" />
  <path fill="1e1e2e"
     d="M 991.28025,0.67431778 C 970.70744,2.8775178 945.06529,10.457258 926.22078,19.905738 c -53.07536,26.61133 -90.58835,75.16947 -103.85854,134.438042 -2.60659,11.64179 -3.01589,16.99197 -3.01589,39.42215 0,22.43016 0.4093,27.78037 3.01589,39.42216 8.71218,38.91119 25.58215,69.73757 53.37523,97.53207 35.12074,35.12254 78.94623,54.44674 128.51893,56.66834 96.624,4.3304 181.3553,-63.62563 199.3529,-159.88459 3.2303,-17.27722 3.2276,-50.62242 -0.01,-68.03834 C 1188.0816,75.854308 1120.1292,11.376118 1036.7303,1.1241878 1026.366,-0.14981222 1001.2927,-0.39806222 991.27977,0.67428778 Z m 57.51395,6.95651002 c 40.0679,8.1262902 74.5287,27.2482002 102.0396,56.6203302 80.4538,85.897282 63.9255,223.273752 -34.6612,288.088042 -63.7796,41.9308 -145.24805,41.1964 -210.53489,-1.8981 -25.40657,-16.7704 -53.66849,-50.44585 -66.07227,-78.72851 -11.91568,-27.1696 -16.31165,-48.37688 -16.29184,-78.59546 0.0202,-29.67515 4.37166,-50.46567 16.03661,-76.60726 27.38655,-61.374562 85.43905,-103.863132 152.49918,-111.6140422 14.11881,-1.63188 42.06751,-0.29052 56.98481,2.735 z M 873.01196,15.501378 c -72.02821,42.56045 -120.9472,115.868252 -132.97043,199.263472 -2.91554,20.22277 -2.89593,57.0164 0.0404,75.67335 6.76169,42.96338 20.86232,79.8986 43.34611,113.5412 11.33443,16.9597 23.45796,32.027 25.00197,31.0727 0.53563,-0.331 3.15076,-4.5381 5.81144,-9.3492 2.66066,-4.811 5.04014,-8.987 5.28772,-9.28 0.2477,-0.293 5.62986,4.7616 11.96061,11.2326 l 11.51044,11.7653 -12.30424,21.2077 c -6.76731,11.6643 -12.55984,21.8595 -12.87228,22.6561 -0.53727,1.3699 20.24611,17.9616 26.50401,21.1585 2.53188,1.2936 3.91741,0.8262 10.38092,-3.5016 11.38743,-7.6248 22.35184,-13.4375 23.7346,-12.5829 0.68324,0.4223 1.24225,1.5108 1.24225,2.4191 0,3.8973 5.84947,19.7638 11.02756,29.9117 5.68606,11.1434 17.02773,27.2549 23.34604,33.1645 l 3.46844,3.244 -1.07884,-3.8928 c -0.59335,-2.1411 -1.0788,-9.4551 -1.0788,-16.2534 0,-11.4204 0.33576,-13.0488 4.41503,-21.4106 8.95469,-18.3557 29.9293,-34.1183 55.09598,-41.4049 16.63429,-4.8164 16.60892,-4.8226 16.13976,3.9348 l -0.38914,7.2646 -9.0833,2.8933 c -19.64072,6.2563 -33.13023,16.8557 -40.58116,31.887 -3.06918,6.1916 -3.53479,8.6837 -3.51547,18.8154 0.0173,9.752 0.5285,12.6352 3.09083,17.4773 4.4281,8.3678 8.97462,13.7493 16.35874,19.3628 8.4498,6.4237 13.57125,9.0357 24.64706,12.57 l 9.0833,2.8986 0.34248,40.8869 0.34248,40.8869 -6.83055,2.2374 c -22.09042,7.2356 -40.34199,21.7738 -52.33169,41.6847 -5.27852,8.7659 -10.8625,25.05 -11.84105,34.5314 l -0.71995,6.9756 -20.47422,2.8736 C 677.088,792.4792 479.47841,912.1598 347.78389,1095.2279 c -4.47034,6.2142 -7.75155,11.9075 -7.29156,12.6518 0.45996,0.7442 2.69962,1.3623 4.97699,1.3734 2.27734,0.012 7.64422,0.8662 11.92634,1.9002 4.28213,1.034 8.43536,1.9008 9.22942,1.9262 0.79405,0.026 7.02358,-7.3989 13.84341,-16.4984 73.56855,-98.1609 168.68356,-177.5819 278.62249,-232.6499 59.32428,-29.7153 123.56893,-52.3826 187.00474,-65.9803 17.16877,-3.6802 55.66824,-10.1437 66.67887,-11.1944 l 9.0833,-0.8668 3.55514,10.1751 c 9.69537,27.749 32.30558,48.3883 63.5964,58.0528 2.14089,0.6613 2.27082,7.4498 2.27082,118.6395 l 0,117.9381 -13.30054,0.8845 c -16.1346,1.0729 -44.9872,5.0942 -62.60989,8.7261 -123.77549,25.5097 -232.12995,98.9867 -303.05068,205.5037 -10.66809,16.0226 -29.45933,49.2416 -33.85758,59.8532 -1.59249,3.8422 -3.5138,6.9858 -4.26953,6.9858 -1.79794,0 -150.27647,-60.991 -151.73649,-62.3293 -1.36036,-1.2469 6.40453,-13.1883 14.24956,-21.9138 6.59736,-7.3379 17.08153,-13.0908 23.78126,-13.0494 6.2491,0.039 14.37038,3.9261 18.53053,8.8701 1.88705,2.2427 3.84065,4.0775 4.34136,4.0775 0.50068,0 0.49647,-5.6933 -0.009,-12.6517 -3.01802,-41.515 -18.52405,-76.3822 -46.36909,-104.2667 -39.34891,-39.4045 -94.92726,-55.0807 -150.69564,-42.5045 -4.65887,1.0505 -6.12777,1.9412 -5.82245,3.5303 0.30543,1.5897 2.52965,2.3531 8.82602,3.0293 53.82135,5.7797 98.30744,44.6939 111.70588,97.7147 4.64494,18.3812 4.23343,45.5613 -0.97742,64.5563 -0.85149,3.104 -2.63629,2.881 -12.40931,-1.5503 l -8.42735,-3.8212 1.86055,-9.4794 c 1.25165,-6.3769 1.64872,-14.151 1.2133,-23.7531 -1.01188,-22.3132 -5.79359,-36.9262 -18.10737,-55.336 -19.7753,-29.565 -51.74661,-46.6048 -87.85152,-46.8222 -49.00242,-0.2951 -90.46834,31.1776 -104.0332,78.9612 -4.13521,14.5667 -4.1496,40.8615 -0.0303,55.3668 7.15554,25.1968 23.50291,47.717 44.62089,61.4699 17.92897,11.6761 31.97584,16.0082 54.92554,16.9392 14.66984,0.5951 18.42753,0.3014 28.54751,-2.2317 26.20982,-6.5604 46.36163,-20.0375 62.20957,-41.6045 3.37469,-4.5925 6.26583,-8.4866 6.42477,-8.6535 0.68359,-0.7177 18.26433,7.3895 18.6712,8.6101 1.81355,5.4406 -29.31034,38.7121 -44.56377,47.6387 -12.93663,7.5707 -30.4604,14.2461 -44.06392,16.7854 -15.39853,2.8743 -41.04934,2.0179 -55.60823,-1.8566 -17.67183,-4.7031 -39.55451,-16.1673 -51.55626,-27.0102 -3.81623,-3.4477 -5.03535,-3.9566 -6.17863,-2.5791 -3.35212,4.0391 18.04655,32.0473 35.94853,47.0521 18.13531,15.2005 40.02269,26.4367 63.36325,32.5285 10.2017,2.6626 16.73303,3.4349 32.84675,3.8839 l 20.11302,0.5605 -4.92119,-2.6995 c -14.42595,-7.9135 -12.74352,-28.3001 2.99824,-36.331 13.3126,-6.7916 28.52404,0.8147 28.52404,14.263 0,5.1454 -2.78079,11.6784 -6.30897,14.822 -2.84431,2.5343 -3.5862,5.3077 -1.72724,6.4566 1.59682,0.9869 20.76223,-4.9018 32.47903,-9.9793 5.73917,-2.4871 15.28777,-7.691 21.21911,-11.5642 11.24763,-7.3449 28.30209,-21.1834 28.30209,-22.9653 0,-0.567 -3.13968,-1.031 -6.97707,-1.031 -9.48827,0 -17.2226,-4.3295 -21.55415,-12.0656 -2.84463,-5.0804 -3.26033,-7.3947 -3.26033,-18.1502 0,-15.0316 2.86876,-28.9599 5.79958,-28.1578 3.46143,0.9474 149.86837,60.9618 150.90977,61.8602 0.5476,0.4724 -1.90723,9.5786 -5.4552,20.2359 -18.86829,56.6763 -25.78878,103.8018 -24.2832,165.3585 1.76135,72.0158 16.82224,133.8717 48.182,197.8862 66.24419,135.2238 192.72647,231.7632 340.64874,260.005 33.14778,6.3287 44.10694,7.2155 89.53538,7.2454 38.3865,0.026 45.8981,-0.3169 64.2319,-2.9259 109.2748,-15.55 203.7796,-63.3759 280.3527,-141.8776 115.0379,-117.9351 160.9348,-287.5721 121.251,-448.1481 -20.7063,-83.7855 -61.4852,-157.0568 -121.9672,-219.1493 -81.4457,-83.6147 -187.2609,-133.7372 -303.3244,-143.6789 l -18.4978,-1.5844 0.3312,-118.1344 0.3312,-118.1345 5.519,-1.5978 c 7.3228,-2.12 20.3324,-8.788 27.5702,-14.1309 14.1372,-10.4358 25.7295,-26.0412 31.8883,-42.9277 l 3.6084,-9.8935 8.5283,0.8542 c 4.6906,0.4698 17.2873,2.3059 27.9926,4.0803 143.5918,23.7996 275.3015,84.9484 385.3915,178.9255 18.6869,15.9519 60.4619,56.255 69.6912,67.2359 l 5.198,6.1844 -3.1981,4.1965 c -4.6064,6.0443 -10.1712,17.4468 -12.1807,24.9583 -2.7454,10.2617 -2.2713,29.8232 0.9618,39.6874 1.5005,4.5784 3.1995,9.2092 3.7754,10.2906 0.8099,1.5208 -5.7241,7.0474 -28.8412,24.3948 l -29.8885,22.4285 0.7201,-7.5258 c 0.396,-4.1392 0.9062,-8.6936 1.1338,-10.121 0.2275,-1.4274 -0.2606,-2.5952 -1.0848,-2.5952 -0.8242,0 -15.7143,16.3859 -33.0891,36.4131 -17.3748,20.0272 -34.9936,40.2892 -39.153,45.0267 -13.9229,15.8584 -12.1728,15.4497 50.0703,-11.6941 32.3949,-14.1272 55.462,-24.8908 55.462,-25.8799 0,-1.1423 -2.0059,-1.723 -6.1637,-1.7846 -13.5785,-0.201 -13.4134,-0.4239 17.5539,-23.6979 15.8269,-11.895 29.594,-21.6274 30.5936,-21.6274 0.9995,0 2.5223,0.8495 3.3839,1.8877 2.7289,3.2881 12.3263,8.2771 22.4796,11.6854 11.685,3.9226 28.3456,4.4617 40.4495,1.309 22.649,-5.8992 41.6489,-23.6585 49.7927,-46.5412 4.4404,-12.4762 4.6262,-33.7391 0.3973,-45.4277 -1.5252,-4.2154 -2.7731,-8.11 -2.7731,-8.6547 0,-0.8136 14.7098,-12.2706 20.2658,-15.7845 0.8357,-0.5285 4.0627,0.1629 7.1714,1.5366 8.2654,3.6523 17.4809,4.4826 24.777,2.2324 5.5868,-1.723 6.8437,-1.6801 13.7492,0.4691 25.7453,8.0129 52.5091,1.2677 71.5973,-18.0444 14.1166,-14.2821 20.7483,-30.4634 20.7483,-50.6252 0,-9.3913 -0.2587,-10.518 -2.415,-10.518 -2.008,0 -2.534,1.3115 -3.1208,7.7837 -0.8338,9.1948 -6.3889,21.6991 -12.9715,29.1983 -5.8806,6.6994 -16.9199,13.2908 -26.4827,15.8124 -8.1755,2.1559 -22.5144,1.7363 -29.7801,-0.8713 -3.8424,-1.3789 -4.0178,-1.7397 -3.4212,-7.034 1.8258,-16.1974 -10.0113,-33.0825 -26.5659,-37.895 -6.6697,-1.939 -6.8376,-2.1063 -6.8376,-6.8136 0,-19.0887 12.465,-38.1173 30.9187,-47.1993 8.2302,-4.0505 9.2768,-4.2371 23.7768,-4.241 8.3421,0 15.5604,-0.3971 16.0409,-0.8775 1.15,-1.15 -4.8977,-4.1078 -12.9926,-6.3545 -8.3134,-2.3075 -26.6762,-2.3157 -35.0356,-0.014 -9.4732,2.6064 -23.2843,10.0995 -30.389,16.4871 -13.6603,12.2818 -21.7688,29.2977 -23.099,48.4734 -0.602,8.6768 -1.399,11.905 -3.6929,14.9577 -4.7531,6.325 -7.5127,16.6296 -6.5797,24.5683 l 0.8132,6.9187 -9.7522,7.3401 c -5.3639,4.0371 -10.509,7.6305 -11.434,7.9854 -0.9248,0.3549 -3.9783,-1.1874 -6.7857,-3.4274 -18.6445,-14.8769 -44.4081,-19.1735 -67.7802,-11.3038 l -9.4739,3.19 -9.266,-9.85 C 1502.1812,898.6274 1368.9941,818.8976 1217.0656,779.1911 c -27.8115,-7.2685 -76.0589,-16.4129 -104.0305,-19.717 l -7.3584,-0.8691 -0.8952,-6.6759 c -2.6925,-20.0777 -12.0419,-38.5002 -27.0953,-53.3899 -11.66,-11.5333 -20.7719,-17.4428 -34.0478,-22.0818 l -8.8876,-3.1056 0,-41.003 0,-41.0031 9.0833,-3.0703 c 19.1184,-6.4623 32.8681,-17.3513 39.8704,-31.5749 3.6612,-7.4371 4.2485,-9.9828 4.2485,-18.4167 0,-8.4338 -0.5873,-10.9796 -4.2485,-18.4167 -7.0601,-14.341 -22.4291,-26.1946 -41.8168,-32.252 l -7.1369,-2.2298 -0.3944,-7.4657 -0.3945,-7.4659 5.5849,0.8841 c 25.4748,4.0323 54.205,22.7611 64.2406,41.8777 6.8091,12.9702 8.084,23.4761 4.8529,39.9909 -0.7508,3.8375 -0.6867,3.8098 4.5073,-1.9464 13.4747,-14.9331 23.99,-33.5329 30.0778,-53.2022 1.6567,-5.3527 3.1244,-9.9174 3.2616,-10.1437 0.52,-0.8584 14.4651,6.7998 22.3047,12.2489 4.4947,3.1243 8.6331,5.6805 9.1965,5.6805 1.1963,0 13.9866,-8.9465 21.7501,-15.2137 l 5.3809,-4.3437 -12.8838,-22.2698 -12.8838,-22.2698 11.3809,-11.4338 11.3809,-11.4339 2.2359,2.9318 c 1.2297,1.6125 3.8075,5.8516 5.7285,9.42 1.9209,3.5685 3.688,6.7243 3.9269,7.0131 1.1656,1.409 19.457,-21.6783 30.3552,-38.3143 15.8867,-24.2504 31.5544,-62.8422 37.4473,-92.23789 9.8564,-49.16661 5.7979,-103.84381 -11.1051,-149.6087 -20.5886,-55.74344 -59.6872,-104.525692 -109.4339,-136.537202 -17.8689,-11.49854 -22.0255,-13.5452802 -23.3048,-11.47533 -0.7987,1.29231 1.9551,4.14796 10.1308,10.50575 58.9103,45.81176 90.965,118.392662 84.7165,191.822322 -3.2944,38.71444 -14.6069,72.22859 -34.8835,103.3446 -8.4297,12.93618 -27.7115,35.99195 -33.9451,40.58925 -4.9649,3.6617 -5.0117,4.7469 -0.289,6.7031 12.8545,5.3245 19.4298,23.6184 13.3217,37.0637 -6.9118,15.2144 -27.3183,20.8622 -41.0417,11.3587 -5.5078,-3.8142 -12.3357,-15.264 -12.3357,-20.6858 0,-1.6563 -0.3889,-3.0114 -0.8642,-3.0114 -0.4754,0 -6.7526,2.8592 -13.9494,6.3537 -59.0074,28.6521 -130.04381,29.3854 -188.75699,1.9485 -6.71686,-3.1388 -12.39663,-5.7069 -12.62173,-5.7069 -0.2252,0 -1.0085,2.1897 -1.74099,4.866 -3.16811,11.576 -11.74381,19.2979 -22.8937,20.6142 -17.47906,2.0636 -31.67199,-10.2269 -31.67199,-27.4266 0,-8.932 3.17976,-15.5945 10.38685,-21.7635 l 5.28591,-4.5245 -8.62672,-8.2667 c -26.48033,-25.375 -49.77476,-64.49963 -58.84223,-98.82958 -6.53539,-24.74343 -7.21392,-30.38312 -7.21392,-59.9603 0,-29.57716 0.67853,-35.21685 7.21392,-59.96028 11.60555,-43.939302 42.258,-88.421922 80.71297,-117.130462 6.92076,-5.16661 8.4856,-7.69358 5.38888,-8.7020902 -0.66908,-0.21771 -6.26329,2.5859202 -12.4316,6.2306602 z m -23.26213,23.35962 c -44.90628,47.36373 -67.14344,109.065412 -62.23713,172.689892 3.06136,39.69924 15.4124,75.8186 36.94363,108.0377 9.67467,14.47711 32.0738,40.92081 34.66199,40.92081 0.77269,0 -0.76354,2.4002 -3.41388,5.3337 -8.47662,9.3827 -11.21248,20.1382 -7.96449,31.3109 5.47457,18.8318 26.20849,28.6002 43.97984,20.7203 7.06138,-3.1311 14.14287,-10.0423 16.59046,-16.1916 0.91753,-2.3052 1.78681,-4.3621 1.93177,-4.5707 0.14504,-0.2088 3.6937,1.1561 7.88612,3.0329 31.23744,13.983 61.01432,20.3101 95.21156,20.2304 33.527,-0.078 69.3411,-8.1493 96.2166,-21.6836 4.854,-2.4444 9.0866,-4.4444 9.4059,-4.4444 0.3193,0 1.2399,1.9977 2.0457,4.4392 4.2282,12.8117 17.148,21.9574 30.9829,21.9324 13.9102,-0.026 26.7259,-9.6349 30.7248,-23.0386 2.4062,-8.065 2.39,-10.3263 -0.1349,-18.8282 -1.4874,-5.0087 -3.7957,-8.6347 -8.477,-13.3159 l -6.433,-6.4331 10.099,-10.6769 c 79.93,-84.50415 80.1315,-220.02309 0.4548,-306.029092 -10.1245,-10.92891 -10.1413,-11.63804 -0.088,-3.72519 55.1514,43.40843 90.6814,104.011322 102.0178,174.009422 2.7355,16.89131 3.0943,58.95607 0.6474,75.91044 -6.1262,42.44874 -23.0884,85.70272 -46.395,118.30852 -9.3627,13.0984 -17.7523,23.6409 -18.8752,23.7189 -0.4866,0.034 -3.3764,-4.3181 -6.4219,-9.6708 -3.0454,-5.3526 -5.8589,-9.6508 -6.2522,-9.5516 -0.3932,0.099 -7.0816,6.7858 -14.863,14.8589 l -14.1481,14.6785 11.4351,19.8522 c 6.2893,10.9187 12.072,20.9149 12.8505,22.2136 1.5665,2.6136 -0.1831,4.3885 -13.1593,13.3479 l -6.789,4.6875 -7.1373,-4.7376 c -10.0272,-6.6556 -27.0308,-15.1779 -27.9869,-14.0272 -0.4403,0.5298 -1.7995,5.3428 -3.0204,10.6954 -2.5994,11.3961 -11.1657,30.0252 -19.1801,41.7105 l -5.6567,8.2477 -0.8053,-9.7321 c -1.1877,-14.3525 -6.7439,-25.2781 -19.2001,-37.7543 -6.1958,-6.2057 -13.4438,-11.8539 -19.5718,-15.2521 -10.7629,-5.9682 -29.6684,-12.5427 -40.0144,-13.9151 l -6.6998,-0.8889 0,11.821 0,11.8211 3.5685,0.7887 c 22.6266,5.0008 41.5937,18.2528 48.5469,33.9189 10.9732,24.7232 -8.655,52.5814 -43.7382,62.078 l -8.3772,2.2676 0,44.3624 0,44.3624 8.0937,2.2502 c 22.935,6.3765 43.6106,23.6469 54.5168,45.5382 4.4878,9.0081 8.742,23.2011 8.776,29.2792 0.042,7.4276 1.1679,8.7463 8.2164,9.6213 144.9578,17.9944 274.0707,69.6042 389.4848,155.6872 37.3968,27.8929 68.4987,55.4082 102.4117,90.6016 l 21.1399,21.9382 5.6105,-2.8622 c 3.0859,-1.5743 10.317,-3.684 16.0692,-4.6882 19.1058,-3.3354 38.6739,1.689 53.6836,13.7839 l 7.8673,6.3395 13.4875,-10.1546 13.4875,-10.1546 -0.5705,-7.8868 c -0.7622,-10.5372 0.3045,-15.4028 4.9998,-22.8066 3.2745,-5.1634 4.0292,-7.8719 4.4929,-16.1249 1.0317,-18.3654 7.9484,-33.4479 20.8909,-45.555 12.1336,-11.3504 27.9214,-18.1667 42.0178,-18.141 l 5.8394,0.012 -6.5052,2.2494 c -15.525,5.3684 -27.8087,16.3271 -34.6226,30.8884 -3.1938,6.8249 -4.1063,10.7658 -4.6334,20.0095 l -0.6564,11.5109 3.4202,0.7176 c 1.881,0.3948 4.7339,0.9865 6.3397,1.3151 5.9321,1.2136 15.0181,8.2821 18.7018,14.549 3.1465,5.353 3.7091,7.7744 3.8677,16.6452 l 0.1854,10.3809 5.0049,2.5491 c 7.8656,4.0061 27.2017,4.3822 37.9865,0.739 12.3969,-4.1878 21.7154,-11.1863 30.2951,-22.7523 2.9926,-4.0341 3.6375,-4.4677 2.8949,-1.9464 -2.6891,9.1293 -8.4254,18.2259 -16.834,26.695 -10.1,10.1727 -20.7856,16.2923 -32.8326,18.8032 -9.5257,1.9853 -29.0178,0.8666 -36.3974,-2.089 -4.9258,-1.9729 -6.4701,-2.046 -12.5262,-0.5931 -8.7853,2.1075 -18.3551,1.1949 -25.2709,-2.4099 -2.9788,-1.5526 -6.1073,-2.4077 -6.9525,-1.9003 -0.8451,0.5074 -6.9854,5.0045 -13.6453,9.9935 -13.4142,10.0489 -12.8854,8.5697 -7.942,22.2206 2.0338,5.6161 2.835,10.8593 2.8755,18.8154 0.093,18.3312 -5.4378,32.931 -17.466,46.1036 -12.4254,13.6077 -27.6762,21.0209 -45.7544,22.2407 -17.1363,1.1562 -31.2362,-3.161 -45.7754,-14.0161 l -6.7906,-5.0699 -33.1111,24.8407 c -18.2109,13.6627 -33.1109,25.2377 -33.1109,25.7224 0,0.4848 2.4816,2.1059 5.5148,3.6023 4.8361,2.3859 5.1954,2.8442 2.9197,3.7235 -1.4274,0.5515 -21.2094,9.0998 -43.9601,18.9962 -22.7505,9.8964 -41.522,17.8247 -41.714,17.6184 -0.1921,-0.2062 13.7507,-16.6032 30.9839,-36.4376 l 31.3331,-36.0624 0.8909,6.0702 c 0.4901,3.3386 1.4028,6.5818 2.0281,7.2072 1.41,1.4099 67.2438,-47.6419 66.9237,-49.8639 -0.1261,-0.8722 -1.8635,-5.3814 -3.8621,-10.0204 -3.2751,-7.6021 -3.6354,-9.9071 -3.6507,-23.357 -0.023,-19.8253 2.4124,-26.5135 16.7967,-46.1365 1.8605,-2.5381 0.9031,-3.7551 -19.9076,-25.3035 C 1455.4865,886.0748 1291.6775,804.5653 1106.0615,781.5781 l -6.5454,-0.8106 -1.7221,6.8975 c -5.4086,21.6619 -25.1079,45.5336 -45.5748,55.2276 -6.0396,2.8607 -13.7548,5.9329 -17.1448,6.8273 l -6.1637,1.6261 0,121.8071 c 0,115.1366 0.1243,121.8079 2.2709,121.8205 7.1403,0.042 35.9295,2.98 51.5801,5.2636 223.2284,32.5709 394.8067,222.3581 403.9524,446.8206 3.4951,85.7822 -12.4749,161.6064 -49.6298,235.6369 -60.7092,120.9623 -171.0543,211.1644 -300.5866,245.7162 -37.9502,10.1229 -70.3183,14.7638 -111.4795,15.9839 -97.35637,2.8857 -192.92125,-24.2873 -273.7966,-77.8516 -29.52992,-19.5579 -50.04898,-36.4257 -75.92938,-62.4182 -123.27143,-123.8054 -168.06349,-303.7136 -117.51948,-472.0191 2.85495,-9.5067 6.67403,-21.0451 8.48683,-25.641 3.90216,-9.8929 4.03783,-11.5686 1.02517,-12.664 -1.24894,-0.4542 -36.80412,-15.0126 -79.01147,-32.3521 -42.20736,-17.3394 -77.48453,-31.6936 -78.39372,-31.8983 -4.20433,-0.9462 -9.54395,29.3181 -7.50837,42.5565 2.07269,13.4799 8.64052,20.9597 22.93625,26.1208 2.81736,1.0172 2.26849,1.6642 -7.78568,9.1784 -5.94922,4.4463 -15.78012,10.6424 -21.84646,13.7692 -10.83448,5.5844 -29.73458,13.0041 -30.69043,12.0483 -0.2676,-0.2676 0.45878,-2.7485 1.61403,-5.5134 2.77047,-6.6307 1.92803,-17.0118 -1.80613,-22.2559 -4.27639,-6.0057 -10.77758,-8.5275 -20.40366,-7.9145 -14.92594,0.9504 -25.27306,11.6846 -25.27306,26.2185 0,4.1057 0.88307,9.1194 1.97973,11.2401 l 1.97975,3.8284 -5.54819,-0.01 c -8.77,-0.01 -28.36395,-3.555 -40.15765,-7.269 -22.68708,-7.1445 -42.46215,-18.8148 -59.59345,-35.1693 -9.54658,-9.1137 -23.14636,-25.0325 -21.38578,-25.0325 0.3847,0 4.00541,2.1149 8.04604,4.6996 56.88032,36.3859 135.22497,22.7493 176.34957,-30.6952 5.73225,-7.4495 13.59161,-20.0609 13.59161,-21.8097 0,-0.5373 -6.24098,-3.54 -13.86881,-6.6726 -9.69517,-3.9816 -14.02932,-5.2141 -14.40217,-4.0955 -0.29334,0.88 -3.94835,6.2059 -8.12226,11.8352 -9.69323,13.0732 -22.15284,23.3791 -36.92197,30.5398 -17.25461,8.3656 -25.52416,10.228 -45.4165,10.228 -19.89237,0 -28.16192,-1.8624 -45.4165,-10.228 -26.80344,-12.9954 -46.1874,-36.8279 -53.97165,-66.3582 -4.094,-15.5309 -3.81576,-37.6528 0.66404,-52.7942 1.85971,-6.2858 4.90371,-14.4608 6.76446,-18.1666 24.24301,-48.2825 81.47028,-69.5562 131.55301,-48.9038 43.41529,17.9031 69.74902,65.0282 61.63085,110.2906 -1.21603,6.78 -2.29977,13.1443 -2.40825,14.1428 -0.19032,1.7501 26.09009,13.8534 27.34831,12.5952 0.30829,-0.3084 1.80824,-5.1367 3.3332,-10.7297 2.3011,-8.4396 2.77736,-13.8102 2.80045,-31.5797 0.0231,-18.3609 -0.39805,-22.9776 -2.96193,-32.4117 -10.55866,-38.8516 -34.98048,-69.1988 -69.93458,-86.9024 -9.89171,-5.01 -24.23929,-9.9774 -32.31677,-11.1887 -10.3224,-1.548 -3.15505,-3.4321 15.60379,-4.1019 61.55669,-2.1978 117.09152,30.8448 144.61836,86.0464 8.73793,17.5227 15.76982,43.2679 15.76982,57.7364 l 0,4.9452 -5.51487,-3.1531 c -6.97003,-3.9853 -17.35094,-4.2339 -25.3418,-0.607 -3.05428,1.3862 -8.6199,5.6069 -12.36807,9.3792 -6.16822,6.208 -17.85661,22.324 -19.72829,27.2016 -0.58448,1.523 9.78577,6.2692 47.64755,21.8068 26.61707,10.9231 58.90532,24.1797 71.7517,29.4592 28.36109,11.6555 38.4482,15.7032 40.44453,16.2294 0.83388,0.2197 5.41394,-7.4835 10.17797,-17.1183 68.20532,-137.9387 197.40955,-234.4726 347.29785,-259.4806 15.24827,-2.5441 50.32388,-6.4426 58.51552,-6.5037 l 3.56844,-0.026 0,-121.8837 0,-121.8837 -7.46128,-2.1548 c -28.72829,-8.297 -53.2821,-33.1526 -60.60018,-61.345 l -1.58514,-6.1067 -6.37595,0.3486 c -3.50679,0.1918 -14.55093,1.5381 -24.54256,2.9919 -140.90599,20.5028 -278.49154,81.975 -388.60706,173.6266 -48.2372,40.1489 -93.88268,88.0475 -129.09419,135.4662 -5.68376,7.6542 -11.23106,13.8895 -12.32734,13.8561 -1.09631,-0.034 -5.72447,-0.7632 -10.28478,-1.622 l -8.29149,-1.5614 14.62345,-19.4642 c 62.20809,-82.8008 136.6376,-151.2119 223.3783,-205.3159 19.15414,-11.9473 25.26778,-15.4786 46.53859,-26.8817 87.31205,-46.8073 188.05903,-78.4001 285.62772,-89.569 l 7.28945,-0.8344 0.84126,-8.2111 c 3.46668,-33.8367 28.74429,-64.6626 61.46349,-74.9544 l 9.40771,-2.9592 0,-44.2837 0,-44.2837 -8.11009,-2.2488 c -18.84667,-5.2259 -35.99851,-17.7922 -42.56109,-31.1824 -2.51679,-5.1352 -3.17913,-8.5173 -3.17656,-16.2202 0.003,-10.6792 2.63335,-17.5828 10.18991,-26.7502 6.92404,-8.4001 23.07172,-17.3958 38.14297,-21.2492 l 5.51486,-1.41 0,-11.6284 c 0,-13.5128 0.96081,-12.9297 -14.99867,-9.1031 -26.40408,6.3306 -46.37163,18.8045 -59.15777,36.956 -6.7153,9.5332 -9.38441,16.5654 -10.90408,28.7284 l -0.93636,7.4945 -3.70997,-4.4386 c -5.92387,-7.0873 -17.69787,-32.0043 -20.79891,-44.0159 -1.56614,-6.0663 -2.9767,-11.2139 -3.13461,-11.4391 -0.52472,-0.7482 -16.64043,7.7944 -25.58956,13.5645 -7.67213,4.9468 -9.1916,5.4898 -11.67852,4.1747 -4.5963,-2.4308 -21.58135,-15.7771 -21.11141,-16.5887 0.23617,-0.4076 6.007,-10.4158 12.82432,-22.2405 l 12.39516,-21.4994 -14.67977,-15.1782 -14.6798,-15.178 -5.57968,9.7519 c -3.06883,5.3637 -5.95072,9.7521 -6.40422,9.7521 -1.11525,0 -16.64894,-20.7314 -23.19733,-30.9594 -12.13901,-18.9561 -24.61439,-46.3101 -30.79043,-67.50863 -22.33748,-76.67032 -10.20386,-159.58684 32.87186,-224.63391 11.43654,-17.269952 17.63233,-25.045782 31.44088,-39.459422 10.32924,-10.78187 36.42651,-33.59186 37.3623,-32.65613 0.22982,0.22982 -2.00516,2.97361 -4.9667,6.0972 z M 989.8867,693.3907 c -36.25324,11.6769 -58.63359,48.5915 -51.47852,84.9096 3.21794,16.3339 9.56809,28.3987 20.92452,39.7552 39.99599,39.9959 106.5881,24.1757 124.6439,-29.6117 6.874,-20.4774 3.5301,-46.0587 -8.3969,-64.2366 -18.4372,-28.1 -54.199,-40.9605 -85.693,-30.8165 z m 39.5623,3.1724 c 13.8619,3.5453 21.9195,8.1858 32.6811,18.8216 14.0659,13.9016 21.2808,30.9956 21.2808,50.4204 0,32.6485 -24.5499,62.1228 -57.3648,68.8717 -12.2708,2.5237 -16.0564,2.5369 -27.62897,0.096 -12.67858,-2.6737 -24.05485,-8.6387 -33.72168,-17.6816 -15.95676,-14.9268 -22.89378,-30.5594 -22.89378,-51.5912 0,-28.4804 14.31468,-51.3546 40.26786,-64.346 14.29328,-7.1548 31.01907,-8.7757 47.37947,-4.5914 z m 614.4018,340.0205 c -15.6556,2.648 -31.9562,15.4472 -39.0913,30.6943 -3.3781,7.219 -4.2248,10.8512 -4.6622,20.0006 -0.8647,18.0862 4.4334,31.8281 16.6923,43.2947 19.4146,18.1602 49.5436,20.082 70.3552,4.4877 12.1337,-9.0919 19.5811,-21.5168 21.9219,-36.5737 4.4575,-28.6719 -15.3953,-56.4344 -44.2723,-61.9108 -7.732,-1.4664 -12.2405,-1.4648 -20.9436,0.01 z m 32.7412,8.7304 c 10.2812,5.0661 19.397,14.354 24.2496,24.7075 3.0825,6.5766 3.4768,8.9682 3.4694,21.0447 -0.014,12.4178 -0.3445,14.3124 -3.8026,21.3824 -9.2197,18.8483 -30.1184,30.8628 -50.0597,28.7785 -13.1677,-1.3763 -21.7189,-5.4838 -31.2418,-15.0066 -11.3592,-11.3592 -14.6976,-19.4679 -14.7405,-35.8031 -0.026,-10.3851 0.4114,-12.6126 3.963,-20.113 4.8108,-10.1598 9.2415,-15.6059 17.0893,-21.0053 10.4635,-7.199 16.4005,-8.8742 30.1753,-8.5141 10.9607,0.2863 13.3305,0.8001 20.898,4.529 z m -711.90704,154.2325 c -101.34028,13.8287 -190.50429,65.8882 -251.23256,146.6851 -26.14038,34.7788 -47.62291,77.706 -59.55807,119.0111 -25.58446,88.5423 -18.1786,180.0544 21.46851,265.28 4.33501,9.3186 6.75434,13.1502 8.001,12.6718 0.98287,-0.3771 11.54358,-6.3265 23.46828,-13.2207 11.92467,-6.8942 44.45436,-25.6614 72.28819,-41.7048 27.83383,-16.0434 50.71608,-29.2551 50.84944,-29.3594 0.13351,-0.1044 -2.37034,-6.7092 -5.56385,-14.6776 -21.27465,-53.0846 -18.54188,-113.6729 7.46685,-165.5467 24.16518,-48.197 67.38453,-84.9354 119.83027,-101.8612 7.70388,-2.4863 30.58399,-7.1849 42.49687,-8.7271 l 6.16361,-0.7979 0,-84.9142 0,-84.9143 -11.35407,0.1531 c -6.24478,0.084 -17.1908,0.9495 -24.32447,1.9229 z m 30.17348,83.2423 -0.33415,81.4253 -3.89284,0.3097 c -8.54433,0.6798 -22.63991,3.3443 -33.3433,6.3031 l -11.28385,3.1193 -74.79954,0 -74.79957,0 -7.15259,-6.375 c -20.99133,-18.7093 -52.13215,-22.271 -74.89193,-8.5658 -3.99189,2.4038 -7.25796,4.0594 -7.25796,3.679 0,-0.3803 4.91006,-7.1988 10.91121,-15.1522 58.67529,-77.7634 146.95555,-129.7119 242.7724,-142.8593 17.05524,-2.3403 21.59585,-2.8279 28.88166,-3.1018 l 5.52461,-0.2076 -0.33415,81.4253 z m -239.24176,72.9592 c 33.78298,5.5324 56.68106,40.4164 48.11559,73.3014 -11.65373,44.7416 -67.34257,59.9956 -99.95823,27.3799 -29.00271,-29.0027 -20.28338,-78.2245 16.94287,-95.6447 12.24628,-5.7308 22.0349,-7.1434 34.89977,-5.0366 z m -22.70122,8.4005 c -14.91717,4.1137 -27.52998,14.727 -34.47836,29.0125 -3.21768,6.6153 -3.59627,8.8084 -3.62721,21.0112 -0.0308,12.1126 0.35203,14.4497 3.44805,21.0555 9.9226,21.1712 27.70854,31.819 51.09919,30.5913 8.6614,-0.4546 12.28059,-1.3397 18.99606,-4.6457 10.76833,-5.3013 19.3778,-13.9111 24.68121,-24.6822 3.94751,-8.0174 4.25251,-9.5695 4.25251,-21.6415 0,-11.9332 -0.34139,-13.7254 -4.14346,-21.7516 -10.96201,-23.141 -36.6016,-35.465 -60.22799,-28.9495 z m 34.31455,7.8206 c 16.33555,8.2091 25.82792,23.8887 25.96122,42.8831 0.0634,9.0357 -0.46287,11.5574 -3.98119,19.0758 -4.97526,10.6319 -12.97225,18.8521 -23.14664,23.7927 -6.87079,3.3364 -9.0395,3.7364 -20.03226,3.6949 -9.66143,-0.036 -13.59014,-0.6286 -18.1666,-2.7378 -14.70211,-6.7761 -24.20855,-17.9123 -28.00595,-32.8071 -4.34966,-17.0611 0.9791,-34.2597 14.42131,-46.5451 10.21036,-9.3317 17.68877,-11.9355 33.04886,-11.5068 10.64839,0.2973 13.35885,0.8625 19.90125,4.1503 z m 152.51729,13.37 c -16.26291,8.2647 -26.67998,15.001 -39.03829,25.2445 -49.20231,40.7825 -77.00831,102.5006 -74.72079,165.85 0.48049,13.3066 0.28346,16.3132 -0.9521,14.524 -0.85692,-1.241 -9.45171,-15.9785 -19.0995,-32.7502 -9.64782,-16.7717 -23.74124,-41.2145 -31.31873,-54.3175 -7.57746,-13.1029 -13.7772,-23.9761 -13.7772,-24.1626 0,-0.1865 4.18472,-0.7514 9.29939,-1.2554 10.88699,-1.0728 23.66255,-5.4147 31.10238,-10.5705 12.90843,-8.9455 24.07279,-24.8683 27.02679,-38.5461 3.12809,-14.4836 0.69178,-33.1408 -5.85783,-44.8593 -1.74795,-3.1274 -3.17809,-5.9047 -3.17809,-6.1716 0,-0.267 30.43627,-0.4854 67.63619,-0.4854 l 67.63619,0 -14.75841,7.5001 z m -234.12864,50.85 c 3.06494,8.4458 7.49418,15.4508 14.12323,22.3366 7.95507,8.2631 14.72135,12.513 26.55415,16.6789 l 10.003,3.5216 17.93202,30.9817 c 54.6445,94.4109 53.66863,92.6067 56.06409,103.6481 2.61861,12.0699 8.93067,31.6486 12.40695,38.4839 l 2.41371,4.746 -22.34896,12.9492 c -64.77846,37.5332 -115.44188,66.6472 -117.0543,67.266 -4.34796,1.6684 -22.14823,-41.9184 -30.541,-74.7846 -7.45228,-29.1832 -10.25403,-49.2405 -11.23823,-80.452 -1.88319,-59.7223 9.15894,-114.0723 34.14041,-168.0411 l 3.6039,-7.7857 0.91868,12.3274 c 0.5053,6.78 1.86534,14.9358 3.02235,18.124 z m 339.39954,-153.8042 0,84.9142 6.1637,0.8209 c 52.3177,6.968 89.2604,24.589 123.6475,58.9778 33.8366,33.8382 52.6089,71.9624 58.4091,118.6215 2.0796,16.7294 0.8615,48.0519 -2.5042,64.3927 -2.7726,13.4613 -9.8163,35.1108 -14.2317,43.7428 -1.537,3.0047 -2.7791,6.2163 -2.7603,7.1368 0.02,0.9206 19.1423,12.6392 42.4968,26.0415 23.3545,13.4023 56.0918,32.2339 72.7495,41.848 16.6578,9.6142 30.8602,17.4804 31.561,17.4804 1.9429,0 16.8883,-32.2976 23.6063,-51.014 22.1774,-61.7867 27.4167,-133.5448 14.4928,-198.497 -26.6887,-134.1305 -125.5272,-243.5353 -256.3622,-283.7686 -27.6212,-8.4938 -67.6407,-15.6113 -87.7781,-15.6113 l -9.4902,0 0,84.9143 z m 40.2261,-77.6373 c 37.4785,5.3465 74.5444,16.8994 109.6484,34.1756 52.3938,25.7854 98.0266,63.4125 132.2773,109.0707 6.6922,8.9211 12.0144,16.3785 11.8271,16.5721 -0.1875,0.1935 -3.9254,-1.4266 -8.3068,-3.6005 -22.2219,-11.0254 -51.2087,-7.4533 -68.8499,8.4845 l -4.9768,4.4962 -78.5851,0 -78.5851,0 -15.0906,-3.891 c -8.2998,-2.14 -18.412,-4.2207 -22.4716,-4.6237 -4.0595,-0.403 -8.6947,-0.9989 -10.3005,-1.3242 l -2.9196,-0.5915 0,-80.2111 c 0,-44.1161 0.4379,-80.6583 0.9732,-81.205 1.1623,-1.187 16.561,-0.034 35.36,2.6479 z m 235.7107,156.7486 c 26.8413,8.4036 45.3245,38.1234 40.7129,65.4637 -4.0444,23.9783 -22.6322,44.1259 -45.5933,49.4193 -20.032,4.6181 -40.2672,-1.353 -55.3772,-16.3409 -32.8142,-32.5492 -17.6864,-86.7131 27.8718,-99.7921 7.7086,-2.213 23.2395,-1.6136 32.3858,1.25 z m -33.9706,7.2918 c -18.5927,5.8971 -32.2047,21.8349 -35.6767,41.7724 -3.79,21.7642 8.4471,44.7698 29.2275,54.9473 7.1793,3.5161 8.8974,3.8131 22.0595,3.8131 13.0007,0 14.9325,-0.3235 21.66,-3.6272 24.6914,-12.1252 36.279,-39.6436 27.4322,-65.1463 -8.7897,-25.338 -38.6841,-40.0117 -64.7025,-31.7593 z m 36.9646,7.5164 c 11.3992,5.6298 18.9477,13.9344 23.3991,25.7433 4.2234,11.2039 3.3046,26.6336 -2.2317,37.4755 -4.8401,9.4785 -13.5603,17.81 -23.479,22.4322 -6.2465,2.9109 -9.1367,3.4318 -19.0427,3.4318 -9.9061,0 -12.7962,-0.5209 -19.0427,-3.4318 -10.2936,-4.797 -18.4483,-12.7736 -23.4543,-22.9422 -3.8627,-7.8463 -4.2171,-9.6047 -4.2171,-20.9209 0,-10.6776 0.4703,-13.3579 3.4648,-19.7465 6.464,-13.79 20.7024,-24.4822 35.8275,-26.9045 10.282,-1.6466 18.3591,-0.2814 28.7761,4.8631 z m -75.9948,8.9959 c -11.5313,19.1494 -12.2917,41.407 -2.1296,62.3389 4.6245,9.5256 17.0014,21.9382 27.2167,27.2952 7.8712,4.1277 25.6311,8.5837 28.1086,7.0525 2.3793,-1.4705 -0.7803,4.4029 -23.5519,43.7801 -12.588,21.7675 -26.4788,45.8195 -30.8685,53.4489 l -7.9811,13.8716 0.068,-21.0085 c 0.1455,-45.1738 -10.6059,-80.9377 -35.5435,-118.2311 -20.368,-30.4598 -53.9242,-58.6614 -86.4286,-72.6372 l -7.594,-3.2651 71.5986,-0.053 71.5985,-0.053 -4.493,7.4613 z m 135.6787,71.0444 c 27.0485,82.9941 23.0764,176.1337 -10.9294,256.2788 -7.1223,16.7859 -12.8835,27.9231 -14.3178,27.6782 -3.4937,-0.5965 -138.8106,-79.9169 -138.6347,-81.2652 0.1119,-0.8589 2.6489,-7.9475 5.6374,-15.7525 2.9886,-7.805 6.7659,-20.0675 8.394,-27.2499 2.9192,-12.8774 3.4453,-13.8973 37.8327,-73.3374 l 34.8724,-60.2783 8.5617,-1.5645 c 29.0201,-5.3029 51.504,-32.5049 51.8269,-62.7028 0.043,-4.0137 0.8212,-2.8199 5.8657,8.9973 3.1989,7.4937 8.0999,20.632 10.8911,29.1963 z m -372.35265,-69.3052 c -42.28902,5.4434 -77.97825,22.6072 -107.68261,51.7874 -26.96272,26.4869 -44.69425,59.5173 -51.84664,96.5802 -3.714,19.2455 -3.72199,49.6709 -0.0173,68.8643 11.02776,57.1446 48.40387,105.8651 100.55594,131.0768 26.2617,12.6956 49.07774,17.7649 79.75316,17.7196 24.817,-0.037 38.2686,-2.0569 58.3152,-8.7586 84.5771,-28.2746 136.9875,-113.355 123.9433,-201.2032 -5.9798,-40.272 -23.1224,-74.0035 -52.3519,-103.0134 -16.8575,-16.7309 -28.4208,-25.1741 -47.5081,-34.6894 -32.2975,-16.1007 -69.4128,-22.7076 -103.1603,-18.3637 z m 57.74385,6.7497 c 49.0276,11.5531 88.4238,38.5864 113.8555,78.1268 12.2438,19.0363 19.9549,37.5173 25.1666,60.3158 4.705,20.5822 4.9284,52.075 0.5153,72.6513 -3.8211,17.816 -9.1886,32.9245 -17.0116,47.8841 -44.6951,85.4689 -148.4458,120.4646 -235.45776,79.4212 -40.45973,-19.0847 -74.10078,-54.5316 -90.30591,-95.1532 -18.86731,-47.295 -16.7133,-102.4978 5.73912,-147.0824 17.18283,-34.1205 46.85737,-63.783 80.71345,-80.6805 16.68133,-8.3256 37.35627,-14.8628 55.79742,-17.6426 8.23088,-1.2407 53.33618,0.3565 60.98788,2.1595 z m -279.87717,329.6492 c -39.74235,22.9836 -72.63036,42.16 -73.08446,42.6141 -1.04758,1.0476 3.80475,8.7804 15.32848,24.4279 93.76319,127.3164 254.64107,181.6391 406.89725,137.3946 76.9615,-22.3644 148.018,-72.5038 195.6321,-138.0434 8.8799,-12.2229 13.9309,-20.0623 13.3076,-20.6537 -0.5862,-0.5559 -10.1149,-6.0803 -86.8057,-50.327 -30.3317,-17.4999 -56.4384,-32.4909 -58.0147,-33.3135 -2.6215,-1.3678 -3.3372,-0.8572 -8.3857,5.9829 -8.6963,11.7824 -26.487,29.5428 -39.2959,39.2289 -27.337,20.6722 -55.8953,32.887 -91.5411,39.1534 -14.1999,2.4963 -50.89471,2.123 -66.03081,-0.6717 -51.08341,-9.4319 -100.34587,-40.3939 -128.27163,-80.6202 -2.68473,-3.8673 -5.46526,-7.0156 -6.17895,-6.9961 -0.71368,0.02 -33.8141,18.8401 -73.55648,41.8238 z m 79.70432,-27.3595 c 3.91113,5.1743 13.02917,15.2376 20.26234,22.3629 11.5658,11.3934 14.46583,15.2259 24.05638,31.7915 5.99783,10.3601 21.98041,38.0171 35.51677,61.4601 l 24.61162,42.6237 -2.41967,7.7745 c -4.37187,14.0467 -2.58099,32.0695 4.59349,46.2276 4.04536,7.9832 13.71708,18.712 22.08497,24.4988 l 6.58623,4.5548 -10.71325,-0.8108 c -27.94142,-2.1147 -64.59908,-11.0836 -96.98874,-23.7298 -65.87599,-25.7208 -126.88976,-74.3554 -167.71666,-133.6886 -3.74687,-5.4453 -6.81247,-10.2976 -6.81247,-10.7829 0,-0.4854 8.6129,-5.8888 19.13981,-12.0076 19.87181,-11.5507 120.22697,-69.5263 120.52092,-69.6254 0.092,-0.031 3.36716,4.177 7.27826,9.3512 z m 421.41605,45.0493 c 23.9086,13.7814 45.0759,25.978 47.0385,27.1035 1.9627,1.1255 3.5685,2.5615 3.5685,3.191 0,0.6296 -3.3532,5.9051 -7.4516,11.7233 -53.0435,75.302 -137.1558,130.1795 -226.8864,148.0274 -18.6745,3.7145 -45.9467,7.2514 -45.9467,5.9588 0,-0.4611 1.8978,-1.7452 4.2172,-2.8535 11.1687,-5.3369 23.3832,-20.6773 28.5288,-35.8296 3.2965,-9.7073 3.5247,-28.3187 0.4604,-37.5445 l -2.183,-6.5726 29.4879,-51.0656 c 16.2184,-28.0861 32.072,-55.6372 35.2302,-61.2247 4.2384,-7.4985 9.7156,-14.1251 20.9144,-25.3035 8.3447,-8.3294 17.0893,-17.8448 19.4324,-21.1453 l 4.2602,-6.0009 22.9296,13.2396 c 12.6112,7.2817 42.4911,24.5152 66.3996,38.2966 z m -364.97277,5.2841 c 19.65748,12.1198 41.27867,20.6685 66.07977,26.1272 10.72366,2.3602 17.13411,2.8271 40.019,2.9144 23.9262,0.091 28.9909,-0.2676 41.5236,-2.942 28.8241,-6.1508 58.9759,-19.0689 78.1813,-33.4955 2.3195,-1.7424 4.2172,-2.7831 4.2172,-2.3127 0,0.749 -9.859,17.9468 -54.8531,95.684 l -10.3614,17.9015 -4.2568,-6.3211 c -22.8757,-33.9684 -70.44928,-38.4836 -99.08111,-9.4037 -4.14784,4.2127 -8.28213,9.4475 -9.18734,11.6329 -0.90522,2.1853 -2.01295,3.9508 -2.46161,3.9233 -0.65616,-0.04 -22.96659,-38.362 -62.96477,-108.152 -3.66455,-6.394 -3.68041,-6.5002 -0.64881,-4.3496 1.70913,1.2125 7.91646,5.1695 13.79407,8.7933 z m 127.50357,76.837 c 35.6825,13.2335 50.1068,56.0683 29.6785,88.1343 -22.6266,35.5165 -75.88641,36.2297 -98.87365,1.324 -9.35038,-14.1984 -12.63914,-28.3254 -9.98817,-42.9044 4.82505,-26.5353 24.61274,-45.7866 51.29042,-49.9002 6.7743,-1.0446 20.4901,0.6009 27.8929,3.3463 z m -33.73216,5.6315 c -21.69279,5.7641 -38.92843,27.7695 -38.92843,49.7014 0,19.8988 12.50191,39.3097 30.85978,47.9141 6.6383,3.1113 8.92332,3.4776 21.69361,3.4776 13.162,0 14.8801,-0.2969 22.0594,-3.8131 9.9386,-4.8675 19.8704,-14.8009 24.7306,-24.7344 3.5112,-7.1764 3.8096,-8.9043 3.8131,-22.0799 0,-13.5286 -0.2237,-14.7569 -4.2447,-22.9311 -7.1096,-14.4531 -20.4235,-24.7559 -36.3658,-28.1415 -8.8864,-1.8872 -14.8036,-1.7351 -23.61756,0.6069 z m 30.76966,5.9242 c 11.2335,4.1898 23.3956,16.9004 27.4939,28.7338 8.0566,23.2627 -2.8423,48.4236 -25.5959,59.0901 -6.3753,2.9886 -9.0196,3.4484 -19.6915,3.4241 -10.894,-0.026 -13.15719,-0.4494 -19.46423,-3.6523 -9.01548,-4.5784 -18.6759,-13.8887 -23.10942,-22.2719 -3.10101,-5.8636 -3.43415,-7.8618 -3.46145,-20.7618 -0.026,-12.5449 0.34236,-14.981 3.04587,-20.113 6.7219,-12.76 15.87496,-20.927 28.51326,-25.4415 7.68327,-2.7445 23.55887,-2.2562 32.26947,0.9925 z m 402.893,-583.8727 c -0.8564,0.8565 -1.5571,2.8669 -1.5571,4.4676 0,2.0728 -2.7072,5.0227 -9.4077,10.2506 -5.1742,4.0371 -9.5831,7.8083 -9.7975,8.3804 -0.2143,0.5721 3.939,7.3751 9.2298,15.1178 49.1791,71.9699 76.757,148.603 85.3854,237.2671 1.9492,20.0307 1.9482,66.926 0,86.9402 -4.4354,45.5188 -13.0643,84.6033 -27.6456,125.2198 -18.1613,50.5889 -49.5366,105.5595 -83.3395,146.014 -8.756,10.4789 -9.5092,11.807 -7.5146,13.2508 1.2193,0.8826 5.7839,4.54 10.1436,8.1276 6.2887,5.1749 7.8107,7.1302 7.3651,9.4613 -1.3109,6.8576 9.2889,9.7143 12.6616,3.4124 1.9186,-3.5851 -1.5193,-8.981 -5.7221,-8.981 -2.736,0 -17.6351,-11.5206 -18.7961,-14.5339 -0.2517,-0.6532 0.5367,-2.2863 1.7519,-3.6291 2.1403,-2.365 2.4761,-2.2216 10.7115,4.5713 8.0101,6.6071 10.8212,7.6951 10.6126,4.1074 -0.049,-0.8499 -3.553,-4.338 -7.7857,-7.7512 -4.2327,-3.4131 -7.6773,-6.6247 -7.6546,-7.1369 0.023,-0.5121 0.8719,-2.028 1.8871,-3.3687 1.7574,-2.321 2.2872,-2.1104 11.0669,4.3982 7.0903,5.2563 9.5754,6.4818 10.7538,5.3033 1.0354,-1.0353 1.0962,-1.8309 0.1875,-2.4518 -0.7399,-0.5056 -4.7021,-3.4904 -8.8049,-6.6329 -7.4784,-5.7281 -8.5983,-8.3824 -4.5991,-10.9006 1.6423,-1.0341 3.8057,-0.01 9.958,4.727 4.3229,3.3264 8.4536,6.048 9.1794,6.048 3.8491,0 1.9393,-3.0707 -5.3196,-8.5531 -4.4716,-3.3773 -8.5914,-6.5365 -9.1552,-7.0205 -0.5638,-0.484 0.074,-2.2367 1.4165,-3.8951 l 2.4416,-3.0151 8.4803,6.0514 c 4.6623,3.3284 9.1342,6.0515 9.9357,6.0515 3.7151,0 0.7115,-3.9761 -6.9464,-9.1952 -4.622,-3.15 -8.3989,-6.3113 -8.3932,-7.025 0.01,-0.7137 0.8151,-2.3591 1.7986,-3.6565 1.6857,-2.2237 2.3107,-2.0115 10.8997,3.6998 7.9901,5.3131 11.9168,6.4538 11.8703,3.4486 -0.01,-0.4932 -4.0888,-3.5243 -9.0694,-6.7359 -4.9805,-3.2116 -9.0618,-6.2125 -9.0694,-6.6687 -0.01,-0.4562 1.008,-2.0491 2.2569,-3.5397 l 2.2708,-2.7101 9.0121,5.7306 c 8.4557,5.3769 11.101,6.1418 11.101,3.21 0,-0.6763 -4.1043,-3.8604 -9.1207,-7.0758 -8.0169,-5.1387 -8.9583,-6.1497 -7.7787,-8.3537 0.7381,-1.3791 1.7918,-2.7855 2.3415,-3.1253 0.5497,-0.3397 5.1754,1.9286 10.2793,5.0408 7.5461,4.6013 9.55,5.3329 10.7258,3.9161 1.144,-1.3783 -0.2598,-2.7616 -6.7178,-6.6207 -11.729,-7.0088 -11.5912,-6.8682 -9.9073,-10.1093 0.7954,-1.5308 1.6293,-2.997 1.8531,-3.258 0.2238,-0.261 4.5755,1.9287 9.6704,4.866 10.0875,5.8159 11.6305,6.2803 11.6305,3.5003 0,-1.0122 -3.8932,-4.0778 -8.6517,-6.8124 -4.7584,-2.7347 -8.8538,-5.5797 -9.1008,-6.3222 -0.2468,-0.7425 0.351,-2.4442 1.3288,-3.7815 1.7024,-2.3282 2.1945,-2.2067 11.5905,2.8614 5.3969,2.9111 10.152,4.9534 10.5669,4.5385 1.9936,-1.9937 -0.029,-3.9715 -8.8879,-8.6914 l -9.6203,-5.1255 1.894,-3.6624 1.8939,-3.6625 9.7363,5.2195 c 5.3548,2.8707 9.942,5.2195 10.1936,5.2195 0.2518,0 0.7982,-0.8875 1.2145,-1.9723 0.557,-1.4518 -1.8032,-3.239 -8.9445,-6.7726 -5.3358,-2.6402 -9.7013,-5.4366 -9.7013,-6.2142 0,-0.7776 0.7674,-2.4634 1.7053,-3.746 1.6096,-2.2012 2.2321,-2.0669 11.0834,2.3906 8.82,4.4417 11.8659,4.9269 11.8659,1.8903 0,-0.7121 -4.3794,-3.2906 -9.7321,-5.7299 -5.3526,-2.4393 -9.7321,-4.7037 -9.7321,-5.0322 0,-0.3284 0.5609,-2.0722 1.2464,-3.8751 l 1.2462,-3.2781 9.9842,4.55 c 6.3654,2.9007 10.4349,4.0993 11.2275,3.3066 2.0364,-2.0363 0.2722,-3.4026 -9.4435,-7.3139 -8.6628,-3.4874 -9.1804,-3.9215 -8.3967,-7.0434 0.4592,-1.8298 1.0614,-3.5535 1.3382,-3.8303 0.2768,-0.2768 5.0123,1.3331 10.5231,3.5776 6.7404,2.7452 10.4485,3.6523 11.3294,2.7715 1.797,-1.7972 0.3918,-2.798 -9.915,-7.0615 -8.745,-3.6175 -10.217,-5.5067 -7.5604,-9.7034 0.9613,-1.5185 2.8788,-1.1299 11.2519,2.2804 7.6642,3.1215 10.334,3.7207 11.0946,2.49 1.3511,-2.186 0.6293,-2.6693 -10.2444,-6.8606 -9.7317,-3.7511 -10.291,-4.3316 -8.1065,-8.4134 1.2577,-2.35 1.613,-2.3254 10.6081,0.7341 10.6394,3.6187 12.7454,3.8572 12.7454,1.4437 0,-0.9861 -4.436,-3.2661 -10.381,-5.3356 -5.7095,-1.9875 -10.3809,-3.8023 -10.3809,-4.0329 0,-0.2307 0.55,-1.8659 1.2222,-3.6339 l 1.2223,-3.2147 9.8569,3.1302 c 11.4972,3.6511 12.3533,3.7405 12.3533,1.2903 0,-1.1466 -3.9113,-3.1424 -10.3809,-5.297 -5.7095,-1.9015 -10.3809,-3.6632 -10.3809,-3.9149 0,-0.2518 0.5548,-1.9173 1.2331,-3.701 l 1.233,-3.2432 10.5733,3.247 c 5.8154,1.786 10.88,2.9406 11.2546,2.566 2.0111,-2.0111 -1.7559,-4.524 -10.6604,-7.1113 -9.7416,-2.8305 -9.9662,-2.9883 -9.11,-6.3994 0.4828,-1.9235 0.9985,-3.6181 1.1462,-3.7657 0.1476,-0.1477 4.6256,0.863 9.951,2.2459 11.563,3.0026 12.9267,3.0889 12.9267,0.8178 0,-1.6578 -2.7589,-2.744 -15.247,-6.0031 -4.5584,-1.1896 -5.5148,-1.9799 -5.5148,-4.5567 0,-1.7146 0.4862,-3.4179 1.0803,-3.7851 0.5942,-0.3673 5.6813,0.4545 11.3045,1.8262 7.7895,1.9 10.4537,2.1225 11.1881,0.9341 1.2675,-2.0509 -0.3385,-2.8174 -11.57,-5.5219 -9.518,-2.2918 -11.0427,-3.8126 -8.2469,-8.2256 0.9369,-1.4786 2.75,-1.3856 11.0279,0.5659 7.5615,1.7826 10.266,1.9763 11.4242,0.818 2.2407,-2.2406 1.0664,-2.8097 -10.4994,-5.0883 -10.7223,-2.1124 -12.241,-3.4206 -9.3228,-8.0301 0.9894,-1.5629 2.62,-1.5313 11.3343,0.2203 6.21,1.2482 10.6591,1.5805 11.4112,0.8523 2.151,-2.0823 -0.8414,-3.5551 -10.9648,-5.3967 -7.9412,-1.4446 -9.7933,-2.2356 -10.064,-4.2984 -0.6791,-5.1734 0.9904,-5.6992 12.0171,-3.7843 6.9028,1.1987 10.7844,1.3652 11.6499,0.4997 1.8322,-1.8322 -1.1222,-3.3864 -8.3028,-4.3678 -12.7618,-1.7443 -13.0859,-1.8972 -13.0859,-6.1742 0,-3.8396 0.1427,-3.9335 4.866,-3.2032 16.075,2.4856 18.491,2.5507 18.491,0.4984 0,-2.1485 -2.5165,-2.8829 -14.5981,-4.2603 -6.7899,-0.7742 -7.4613,-1.1328 -7.4613,-3.9859 0,-4.2653 2.3104,-4.8501 13.651,-3.4554 8.7217,1.0726 9.706,0.971 9.706,-1.0015 0,-1.6371 -1.567,-2.4063 -6.1636,-3.026 -16.7311,-2.2554 -15.9655,-1.9635 -15.0607,-5.7409 0.4551,-1.9002 0.9054,-3.5663 1.0006,-3.7024 0.095,-0.1361 4.8304,0.2082 10.5228,0.7648 6.8374,0.6687 10.6509,0.5535 11.2373,-0.3395 1.6026,-2.4403 -0.026,-3.0312 -10.8479,-3.9336 -5.8799,-0.4904 -10.9318,-1.1326 -11.2265,-1.4271 -0.2945,-0.2946 -0.1421,-2.103 0.3387,-4.0186 l 0.8742,-3.4831 10.8784,0.6787 c 8.2376,0.5139 11.0359,0.2682 11.527,-1.0116 0.8422,-2.1945 -1.9482,-3.2028 -8.8635,-3.2028 -3.064,0 -7.3956,-0.3649 -9.6259,-0.811 -3.3872,-0.6774 -4.0551,-1.4115 -4.0551,-4.4574 l 0,-3.6464 11.6786,0.7567 c 9.9813,0.6466 11.6785,0.466 11.6785,-1.2431 0,-2.8145 -2.7828,-3.5749 -13.0823,-3.5749 l -8.9772,0 0,-3.8929 0,-3.8928 11.0298,0 c 8.9391,0 11.0297,-0.3689 11.0297,-1.9464 0,-1.3286 -1.3386,-1.95 -4.2173,-1.9577 -2.3195,-0.01 -7.2828,-0.3795 -11.0297,-0.8296 -6.4399,-0.7735 -6.8125,-1.0213 -6.8125,-4.5304 l 0,-3.7121 11.0298,0 c 8.9391,0 11.0297,-0.3689 11.0297,-1.9464 0,-1.5775 -2.0906,-1.9464 -11.0297,-1.9464 l -11.0298,0 0,-3.8928 c 0,-3.5246 0.399,-3.894 4.2173,-3.9042 9.3111,-0.026 17.8422,-1.657 17.8422,-3.4135 0,-1.3506 -2.5924,-1.7656 -11.0297,-1.7656 l -11.0298,0 0,-3.8404 0,-3.8404 10.6909,-0.3768 c 9.1625,-0.323 10.7561,-0.7169 11.1455,-2.7542 0.4237,-2.2171 -0.3407,-2.3151 -11.3398,-1.4547 l -11.7942,0.9227 0,-3.9669 c 0,-3.826 0.242,-3.9932 6.8125,-4.7097 3.7468,-0.4086 8.8562,-0.8886 11.3541,-1.0666 2.9804,-0.2123 4.5417,-0.9783 4.5417,-2.228 0,-1.5566 -2.0412,-1.8338 -11.1756,-1.5181 -10.6563,0.3683 -11.2111,0.2503 -11.9404,-2.5381 -1.0564,-4.0398 -0.1052,-5.0674 4.7015,-5.0805 2.2775,-0.01 7.2329,-0.3826 11.0122,-0.8365 5.3919,-0.6476 6.7723,-1.2738 6.411,-2.9084 -0.2532,-1.1457 -1.0098,-1.9935 -1.681,-1.8841 -0.6713,0.1093 -5.6708,0.609 -11.1097,1.11 l -9.8892,0.911 -0.5849,-3.9848 c -0.5678,-3.8694 -0.413,-4.0066 5.3476,-4.7366 14.5006,-1.8376 16.9335,-2.5175 15.7549,-4.4029 -0.9291,-1.4863 -3.0516,-1.5982 -11.5472,-0.6087 l -10.4088,1.2123 -0.6264,-3.2767 c -0.3445,-1.8022 -0.3963,-3.6491 -0.1156,-4.1043 0.2811,-0.4551 4.4168,-1.2457 9.1901,-1.7569 10.4749,-1.1218 12.1192,-1.6849 12.1192,-4.1506 0,-1.5655 -1.3169,-1.7239 -7.4613,-0.8977 -13.4354,1.8065 -15.1978,1.5537 -15.6388,-2.2435 -0.3765,-3.2426 -0.017,-3.4374 9.264,-5.025 10.8081,-1.8488 13.8455,-3.1503 11.8787,-5.0898 -0.8389,-0.8274 -4.8824,-0.6413 -11.6196,0.5346 -5.6832,0.9919 -10.453,1.6834 -10.5998,1.5367 -0.1468,-0.1468 -0.6558,-1.8165 -1.1313,-3.7104 -0.979,-3.9011 -1.1664,-3.8062 12.6563,-6.4083 5.5433,-1.0435 8.7589,-2.276 8.7589,-3.3572 0,-2.1375 -3.5808,-2.1016 -14.0358,0.1408 l -8.1965,1.758 -1.2594,-3.3126 c -0.6927,-1.8218 -0.7998,-3.6988 -0.2379,-4.171 0.5618,-0.4722 5.5469,-1.8867 11.078,-3.1434 6.7278,-1.5286 10.0565,-2.8925 10.0565,-4.1206 0,-2.3357 -1.4974,-2.3049 -12.8786,0.2653 -5.1171,1.1556 -9.5208,1.8843 -9.7858,1.6193 -0.265,-0.265 -0.8531,-1.9614 -1.307,-3.77 -0.7966,-3.1736 -0.4722,-3.3733 9.3022,-5.7293 10.9519,-2.6398 13.3299,-3.8651 11.3479,-5.8471 -0.7949,-0.795 -4.9474,-0.2965 -11.4868,1.3787 -8.3066,2.1279 -10.4461,2.3019 -11.322,0.9206 -2.4158,-3.8092 -1.1512,-6.1365 4.0706,-7.4924 2.8548,-0.7411 7.5262,-1.954 10.3809,-2.6952 3.0732,-0.7979 5.1905,-2.1212 5.1905,-3.244 0,-2.4823 -1.4955,-2.3988 -12.2801,0.6853 -9.3409,2.6712 -10.2279,2.5137 -11.605,-2.0609 -0.7386,-2.4533 0.1794,-3.0149 9.2619,-5.668 11.2421,-3.2838 12.3495,-3.9114 10.9365,-6.1977 -0.7496,-1.2129 -3.4349,-0.8295 -11.3,1.6134 -5.6742,1.7625 -10.4057,3.2132 -10.5143,3.2239 -0.109,0.012 -0.7963,-1.6984 -1.5282,-3.798 l -1.3308,-3.8175 10.2737,-3.4215 c 5.6505,-1.8818 10.6087,-3.9635 11.0182,-4.6261 1.6364,-2.6478 -3.3728,-2.4336 -12.7536,0.5454 l -9.8814,3.1379 -1.2633,-3.624 c -1.2601,-3.6149 -1.2372,-3.6332 9.0122,-7.2011 8.0604,-2.8059 10.2757,-4.1181 10.2757,-6.0865 0,-1.877 -0.5724,-2.2766 -2.2708,-1.5854 -1.249,0.5082 -6.1449,2.2647 -10.8799,3.9034 l -8.609,2.9793 -1.4475,-3.1768 c -0.7961,-1.7473 -1.4475,-3.3491 -1.4475,-3.5596 0,-0.2105 4.2335,-2.0145 9.4077,-4.0089 10.7607,-4.1478 12.4452,-5.2952 10.5519,-7.1884 -0.8966,-0.8967 -4.4141,-0.046 -10.9444,2.6469 -8.9877,3.7063 -9.7316,3.82 -11.2657,1.7221 -2.9021,-3.9689 -1.8212,-5.2608 7.5778,-9.0564 8.352,-3.3728 11.68,-5.9642 9.9199,-7.7242 -0.3545,-0.3545 -5.186,1.1593 -10.7366,3.3642 -10.2551,4.0738 -11.3808,4.0084 -12.8103,-0.7445 -0.705,-2.3445 0.4801,-3.2095 9.4992,-6.9333 7.3243,-3.0239 10.1022,-4.7826 9.6043,-6.0802 -0.9557,-2.4907 -1.5272,-2.3861 -11.5637,2.117 -9.5049,4.2646 -11.4648,4.2617 -12.5841,-0.017 -0.6333,-2.4215 0.5254,-3.355 8.9033,-7.1729 5.9729,-2.7219 9.6312,-5.1564 9.6312,-6.4093 0,-2.9124 -1.5772,-2.5656 -11.8439,2.6047 -5.0512,2.5437 -9.337,4.4415 -9.524,4.2173 -1.0909,-1.3079 -3.4283,-6.531 -3.0675,-6.8548 0.2362,-0.212 4.6629,-2.5051 9.8372,-5.0957 5.1742,-2.5905 9.4077,-5.2522 9.4077,-5.9148 0,-2.9306 -3.0558,-2.3833 -11.7582,2.1061 -9.0016,4.6437 -9.3916,4.7261 -11.1299,2.3487 -0.9909,-1.355 -1.606,-3.0504 -1.367,-3.7675 0.2391,-0.7171 4.3761,-3.4372 9.1937,-6.0446 4.8174,-2.6075 8.761,-5.1246 8.7634,-5.5936 0.017,-3.3303 -2.0088,-3.0099 -10.6084,1.6772 -5.332,2.9063 -10.0389,5.2924 -10.4596,5.3024 -0.8329,0.02 -4.1097,-6.6216 -3.5009,-7.0956 0.205,-0.1598 4.3093,-2.4673 9.1203,-5.128 9.5825,-5.2995 10.336,-5.9868 8.976,-8.1874 -0.629,-1.0178 -3.9849,0.2895 -10.5893,4.1252 -8.7033,5.0546 -9.8292,5.4038 -11.2796,3.4983 -2.8443,-3.7369 -1.8697,-5.1405 7.3896,-10.6413 4.9958,-2.9679 9.0833,-5.8792 9.0833,-6.4694 0,-3.0342 -3.5352,-2.2245 -11.1596,2.556 -4.6495,2.9155 -8.9837,5.3009 -9.631,5.3009 -0.6474,0 -1.8508,-1.259 -2.6744,-2.7978 -1.6871,-3.1524 -0.4787,-4.3934 10.788,-11.0782 3.3759,-2.003 6.1495,-4.098 6.1637,-4.6557 0.074,-2.9188 -4.4155,-1.7923 -12.1273,3.043 -7.0995,4.4514 -8.971,5.125 -10.5648,3.8023 -3.473,-2.8823 -2.0789,-5.0674 7.147,-11.2022 7.0933,-4.7167 8.7725,-6.4156 7.6628,-7.7527 -1.1381,-1.3713 -3.3101,-0.4375 -10.9088,4.69 l -9.4878,6.4023 -2.0679,-3.156 c -1.1373,-1.7358 -2.0678,-3.3654 -2.0678,-3.6214 0,-0.256 4.0541,-3.2354 9.009,-6.621 5.9992,-4.099 8.7708,-6.7767 8.2957,-8.0147 -0.3924,-1.0225 -0.9842,-1.8591 -1.3152,-1.8591 -0.3311,0 -4.4243,2.7276 -9.0962,6.0614 -6.6638,4.7551 -8.9509,5.7738 -10.6134,4.7269 -4.0338,-2.54 -2.8194,-5.0596 5.3191,-11.0353 6.1776,-4.5359 8.985,-5.8424 11.5148,-5.3588 3.9991,0.7645 7.648,-2.3628 7.648,-6.5547 0,-3.8303 -2.3504,-6.0061 -6.4881,-6.0061 -1.8556,0 -4.0745,0.7007 -4.9309,1.5571 z"
     id="path4138"
     inkscape:connector-curvature="0" />
</svg>
